<svg width="66" height="47" viewBox="0 0 66 47" fill="none" xmlns="http://www.w3.org/2000/svg">
<path d="M32.8125 19.25C34.5447 19.25 36.2058 19.9382 37.4307 21.1631C38.6555 22.3879 39.3438 24.0491 39.3438 25.7812L39.3359 26.1055C39.2558 27.7196 38.5789 29.2512 37.4307 30.3994C36.2058 31.6243 34.5447 32.3125 32.8125 32.3125L32.4883 32.3047C30.8741 32.2245 29.3425 31.5476 28.1943 30.3994C26.9695 29.1746 26.2812 27.5134 26.2812 25.7812C26.2812 24.0491 26.9695 22.3879 28.1943 21.1631C29.4192 19.9382 31.0803 19.25 32.8125 19.25Z" fill="#D5E9F4" stroke="#2F4F75"/>
<path d="M26.3438 0.5H39.2803L39.6035 0.508789C41.1083 0.585594 42.541 1.1803 43.6572 2.19238L43.8916 2.41602L49.1514 7.66602C50.4742 8.99029 52.239 9.7713 54.0996 9.86523L54.4727 9.875H58.5938C60.3259 9.875 61.9871 10.5632 63.2119 11.7881C64.4368 13.0129 65.125 14.6741 65.125 16.4062V39.8438L65.1172 40.168C65.037 41.7821 64.3601 43.3137 63.2119 44.4619C61.9871 45.6868 60.3259 46.375 58.5938 46.375H7.03125C5.29905 46.375 3.63793 45.6868 2.41309 44.4619C1.18824 43.2371 0.5 41.5759 0.5 39.8438V16.4062C0.5 14.6741 1.18824 13.0129 2.41309 11.7881C3.63793 10.5632 5.29905 9.875 7.03125 9.875H11.1572C13.0276 9.87205 14.8251 9.17334 16.2041 7.92285L16.4736 7.66602L21.7285 2.41602C22.8757 1.26738 24.4068 0.59023 26.0205 0.508789L26.3438 0.5ZM32.8125 11.2188C28.9503 11.2188 25.2466 12.7534 22.5156 15.4844C19.7846 18.2154 18.25 21.919 18.25 25.7812C18.25 29.6435 19.7846 33.3471 22.5156 36.0781C25.2466 38.8091 28.9503 40.3438 32.8125 40.3438C36.6747 40.3438 40.3784 38.8091 43.1094 36.0781C45.8404 33.3471 47.375 29.6435 47.375 25.7812C47.375 21.919 45.8404 18.2154 43.1094 15.4844C40.3784 12.7534 36.6747 11.2188 32.8125 11.2188Z" fill="#D5E9F4" stroke="#2F4F75"/>
</svg>
