<svg width="68" height="68" viewBox="0 0 68 68" fill="none" xmlns="http://www.w3.org/2000/svg">
<path d="M34 0C27.2754 0 20.7019 1.99406 15.1106 5.73003C9.51935 9.466 5.16149 14.7761 2.58811 20.9888C0.0147317 27.2014 -0.658582 34.0377 0.653316 40.6331C1.96521 47.2284 5.2034 53.2866 9.95838 58.0416C14.7134 62.7966 20.7716 66.0348 27.3669 67.3467C33.9623 68.6586 40.7986 67.9853 47.0112 65.4119C53.2239 62.8385 58.534 58.4806 62.27 52.8894C66.0059 47.2981 68 40.7246 68 34C68 29.535 67.1206 25.1138 65.4119 20.9888C63.7032 16.8637 61.1988 13.1156 58.0416 9.95837C54.8844 6.80118 51.1363 4.29675 47.0112 2.5881C42.8862 0.879436 38.465 0 34 0ZM27.2 49.3V18.7L47.6 34L27.2 49.3Z" fill="#2F4F75"/>
</svg>
