<svg width="76" height="76" viewBox="0 0 76 76" fill="none" xmlns="http://www.w3.org/2000/svg">
<path d="M12.6667 60.138V31.638C12.6667 30.6352 12.8916 29.6852 13.3412 28.788C13.7909 27.8908 14.4105 27.1519 15.2001 26.5714L34.2001 12.3214C35.3084 11.4769 36.5751 11.0547 38.0001 11.0547C39.4251 11.0547 40.6917 11.4769 41.8001 12.3214L60.8001 26.5714C61.5917 27.1519 62.2124 27.8908 62.6621 28.788C63.1117 29.6852 63.3355 30.6352 63.3334 31.638V60.138C63.3334 61.8797 62.7127 63.3712 61.4714 64.6125C60.2301 65.8539 58.7396 66.4735 57.0001 66.4714H47.5001C46.6029 66.4714 45.8513 66.1674 45.2454 65.5594C44.6395 64.9514 44.3355 64.1998 44.3334 63.3047V47.4714C44.3334 46.5741 44.0294 45.8226 43.4214 45.2167C42.8134 44.6108 42.0619 44.3068 41.1667 44.3047H34.8334C33.9362 44.3047 33.1846 44.6087 32.5787 45.2167C31.9729 45.8247 31.6689 46.5762 31.6667 47.4714V63.3047C31.6667 64.2019 31.3627 64.9545 30.7547 65.5625C30.1467 66.1705 29.3952 66.4735 28.5001 66.4714H19.0001C17.2584 66.4714 15.768 65.8517 14.5287 64.6125C13.2895 63.3733 12.6689 61.8818 12.6667 60.138Z" fill="#2F4F75"/>
</svg>
