<svg width="76" height="76" viewBox="0 0 76 76" fill="none" xmlns="http://www.w3.org/2000/svg">
<path fill-rule="evenodd" clip-rule="evenodd" d="M38 6.3335C42.1585 6.33348 46.2763 7.15254 50.1183 8.74393C53.9603 10.3353 57.4512 12.6679 60.3918 15.6084C63.3323 18.5489 65.6649 22.0398 67.2563 25.8818C68.8477 29.7238 69.6668 33.8416 69.6668 38.0001C69.6668 55.4892 55.489 69.6669 38 69.6669C20.5111 69.6669 6.33337 55.4892 6.33337 38.0001C6.33337 20.5112 20.5111 6.3335 38 6.3335ZM41.1668 41.1669H34.8334C26.9936 41.1669 20.263 45.9149 17.3601 52.6928C21.9533 59.1336 29.4862 63.3335 38 63.3335C46.5138 63.3335 54.0467 59.1336 58.6401 52.6923C55.7371 45.915 49.0065 41.1669 41.1668 41.1669ZM38 15.8335C32.7533 15.8335 28.5 20.0868 28.5 25.3335C28.5 30.5802 32.7533 34.8335 38 34.8335C43.2467 34.8335 47.5 30.5802 47.5 25.3335C47.5 20.0868 43.2468 15.8335 38 15.8335Z" fill="#2F4F75"/>
</svg>
