<svg width="61" height="61" viewBox="0 0 61 61" fill="none" xmlns="http://www.w3.org/2000/svg">
<path d="M5.7 0C2.546 0 0 2.546 0 5.6924V55.0202C0 58.1666 2.5498 60.7126 5.7 60.7126H9.5C12.6426 60.7126 15.1962 58.1666 15.1962 55.0202V5.6924C15.1962 2.546 12.6426 0 9.4962 0H5.7ZM24.6924 0C21.546 0 18.9924 2.546 18.9924 5.6924V55.0202C18.9924 58.1666 21.546 60.7126 24.6924 60.7126H28.4924C31.6388 60.7126 34.1886 58.1666 34.1886 55.0202V5.6924C34.1886 2.5498 31.6388 0 28.4886 0H24.6924ZM52.1284 15.7966C51.9548 15.0444 51.6302 14.3352 51.1742 13.7122C50.7183 13.0892 50.1406 12.5653 49.4761 12.1723C48.8116 11.7793 48.0742 11.5254 47.3086 11.4259C46.543 11.3265 45.7652 11.3836 45.0224 11.5938L42.1914 12.3918C40.8093 12.7844 39.6264 13.6845 38.8796 14.9119C38.1327 16.1393 37.8769 17.6035 38.1634 19.0114L45.7748 56.2476C45.9303 57.0023 46.2372 57.7177 46.677 58.3505C47.1168 58.9832 47.6803 59.5202 48.3335 59.9291C48.9867 60.3379 49.716 60.61 50.4773 60.729C51.2387 60.848 52.0162 60.8114 52.763 60.6214L56.506 59.6714C59.508 58.9114 61.3472 55.8942 60.6556 52.8808L52.1284 15.7966Z" fill="#2F4F75"/>
</svg>
