<svg width="27" height="30" viewBox="0 0 27 30" fill="none" xmlns="http://www.w3.org/2000/svg">
<path fill-rule="evenodd" clip-rule="evenodd" d="M13.6666 0.176325C12.2219 1.15955 11.0455 2.4523 10.2342 3.94815C9.42286 5.444 8.9999 7.10018 9.0001 8.78033V8.84823C9.0091 10.1213 9.2566 11.3435 9.69985 12.4744C10.0599 13.3826 9.24085 14.4053 8.32735 13.9597C6.62827 13.13 5.18168 11.9053 4.12435 10.4014C3.66985 9.75637 2.66635 9.63118 2.21635 10.2783C0.732464 12.4088 -0.0391061 14.9103 0.00152611 17.459C0.0421584 20.0076 0.893122 22.4861 2.44426 24.5735C3.99539 26.661 6.17527 28.2613 8.7017 29.1672C11.2281 30.0732 13.9848 30.2431 16.6148 29.655C19.2448 29.0669 21.627 27.7479 23.4531 25.8686C25.2792 23.9894 26.4651 21.6365 26.8572 19.1145C27.2493 16.5925 26.8296 14.0176 25.6524 11.7231C24.4753 9.42855 22.5949 7.52009 20.2546 6.24475L20.2456 6.2299C17.9867 5.00287 16.2521 3.07149 15.3406 0.768314C15.0796 0.110548 14.2674 -0.231066 13.6666 0.176325ZM15.4216 13.2828C16.4828 13.5796 17.4503 14.1179 18.2391 14.8502C19.0278 15.5825 19.6135 16.4864 19.9447 17.4824C20.2759 18.4784 20.3424 19.5359 20.1383 20.5618C19.9342 21.5877 19.4658 22.5505 18.7743 23.3656C18.0828 24.1807 17.1895 24.8229 16.1729 25.2358C15.1564 25.6488 14.0477 25.8197 12.9447 25.7335C11.8416 25.6474 10.7779 25.3069 9.84714 24.7419C8.91643 24.177 8.14726 23.4049 7.60735 22.4937C7.1461 21.7192 8.0911 21.0211 9.00235 21.2418C10.382 21.5773 11.8263 21.5991 13.2166 21.3055C13.8646 21.1676 14.1458 20.4864 13.9388 19.8923C13.6471 19.0439 13.4991 18.1574 13.5001 17.2655C13.5001 16.0242 13.7836 14.8466 14.2898 13.7836C14.3819 13.5849 14.5476 13.4246 14.7559 13.3328C14.9642 13.241 15.2009 13.2219 15.4216 13.2828Z" fill="#060000"/>
</svg>
